<svg xmlns="http://www.w3.org/2000/svg" xmlns:xlink="http://www.w3.org/1999/xlink" width="500" zoomAndPan="magnify" viewBox="0 0 375 374.999991" height="500" preserveAspectRatio="xMidYMid meet" version="1.0"><path fill="#2b59c3" d="M 359.195312 110.355469 C 358.203125 119.101562 359.195312 128.738281 359.195312 128.738281 L 350.332031 126.273438 L 342.160156 128.738281 C 342.160156 128.738281 344.21875 156.722656 342.160156 189.863281 C 340.097656 223.007812 339.886719 254.960938 342.160156 286.925781 C 344.433594 318.886719 342.160156 338.371094 342.160156 338.371094 L 297.71875 310.335938 L 292.464844 287.976562 L 291.851562 277.632812 L 246.785156 277.632812 L 246.785156 207.109375 L 287.648438 207.109375 L 286.5 187.800781 L 287.484375 84.382812 L 324.128906 37.238281 C 324.128906 37.238281 335.167969 47.226562 340.542969 54.335938 C 345.917969 61.433594 359.203125 72.75 359.203125 72.75 C 359.203125 72.75 359.738281 83.660156 359.203125 89.453125 C 358.664062 95.238281 360.1875 101.613281 359.195312 110.355469 Z M 192.808594 101.144531 C 185.242188 87.925781 175.15625 72.75 175.15625 72.75 C 175.15625 72.75 169.117188 66.242188 165.964844 63.605469 C 162.8125 60.964844 157.691406 54.53125 152.695312 49.398438 L 139.152344 37.230469 L 137.332031 45.445312 L 196.4375 157.765625 L 170.445312 126.898438 L 132.882812 158.605469 L 178.285156 212.523438 L 215.847656 180.816406 L 211.234375 175.335938 L 235.199219 178.800781 L 235.855469 163.148438 C 235.855469 163.148438 224.683594 147.890625 220.351562 140.398438 C 216.011719 132.910156 200.386719 114.375 192.808594 101.144531 Z M 162.984375 282.375 C 162.984375 282.375 156.371094 274.429688 152.695312 271.796875 C 149.019531 269.167969 146.628906 265.621094 146.628906 265.621094 C 146.628906 265.621094 145.433594 239.316406 146.628906 229.582031 C 147.828125 219.851562 146.097656 194.070312 146.097656 194.070312 L 112.761719 132.515625 L 99.628906 177.757812 L 108.3125 272.457031 L 131.621094 321.902344 L 162.984375 338.371094 C 162.984375 338.371094 163.601562 329.40625 163.601562 326.121094 C 163.601562 322.832031 162.984375 306.257812 162.984375 297.1875 C 162.984375 288.117188 162.984375 282.375 162.984375 282.375 Z M 101.5 68.914062 L 52.359375 68.914062 L 52.359375 139.4375 L 101.492188 139.4375 L 101.492188 68.914062 Z M 101.5 68.914062 " fill-opacity="1" fill-rule="nonzero"/><path fill="#d36582" d="M 174.304688 168.398438 C 171.039062 172.238281 165.578125 175.0625 161.722656 176.707031 C 160.203125 175.84375 158.578125 175.023438 157.085938 174.308594 C 153.910156 172.78125 150.160156 171.441406 150.160156 171.441406 C 150.160156 171.441406 161.179688 168.21875 163.511719 167.191406 C 165.851562 166.148438 168.445312 162.769531 170.527344 161.472656 C 172.597656 160.183594 175.28125 152.378906 175.28125 152.378906 C 175.28125 152.378906 176.832031 153.9375 178.496094 156.832031 C 178.496094 156.839844 178.488281 156.839844 178.488281 156.855469 C 178.734375 157.265625 178.996094 157.695312 179.242188 158.171875 C 179.539062 158.710938 179.910156 159.269531 180.386719 159.839844 C 178.75 162.507812 176.652344 165.648438 174.304688 168.398438 Z M 65.152344 102.164062 L 65.21875 101.933594 C 65.21875 101.933594 65.570312 92.550781 71.414062 91.21875 C 74.859375 90.421875 80.171875 90.011719 84.691406 90.414062 C 84.453125 89.816406 84.199219 89.25 83.96875 88.625 C 83.3125 86.824219 83.3125 86.824219 83.3125 86.824219 C 83.3125 86.824219 82.015625 82.980469 80.492188 83.496094 C 78.964844 84.015625 75.050781 83.496094 75.050781 83.496094 C 74.1875 83.496094 68.089844 84.269531 67 85.289062 C 65.90625 86.316406 60.6875 90.925781 60.6875 93.488281 C 60.6875 96.050781 61.992188 98.625 63.519531 100.414062 C 63.9375 100.917969 64.503906 101.53125 65.152344 102.164062 Z M 275.363281 212.925781 C 274.199219 213.320312 271.203125 212.925781 271.203125 212.925781 C 270.539062 212.925781 265.882812 213.519531 265.046875 214.296875 C 264.210938 215.085938 260.222656 218.605469 260.222656 220.566406 C 260.222656 222.53125 261.222656 224.488281 262.386719 225.859375 C 262.707031 226.246094 263.144531 226.714844 263.636719 227.199219 L 263.683594 227.027344 C 263.683594 227.027344 263.957031 219.851562 268.421875 218.832031 C 271.054688 218.226562 275.117188 217.914062 278.570312 218.21875 C 278.390625 217.757812 278.195312 217.332031 278.023438 216.84375 C 277.519531 215.464844 277.519531 215.464844 277.519531 215.464844 C 277.519531 215.464844 276.527344 212.539062 275.363281 212.925781 Z M 80.949219 119.273438 C 79.785156 119.667969 76.789062 119.273438 76.789062 119.273438 C 76.125 119.273438 71.472656 119.863281 70.632812 120.644531 C 69.796875 121.433594 65.808594 124.949219 65.808594 126.914062 C 65.808594 128.878906 66.808594 130.832031 67.976562 132.207031 C 68.296875 132.589844 68.730469 133.058594 69.222656 133.542969 L 69.273438 133.371094 C 69.273438 133.371094 69.542969 126.199219 74.007812 125.179688 C 76.640625 124.570312 80.703125 124.257812 84.160156 124.5625 C 83.980469 124.105469 83.78125 123.675781 83.609375 123.191406 C 83.109375 121.8125 83.109375 121.8125 83.109375 121.8125 C 83.109375 121.8125 82.117188 118.878906 80.949219 119.273438 Z M 282.199219 77.039062 L 254.269531 77.039062 L 254.269531 200.394531 L 282.199219 200.394531 Z M 87 144.835938 L 59.070312 144.835938 L 59.070312 271.503906 L 87 271.503906 Z M 256.691406 252.980469 C 257.199219 254.578125 258.085938 256.054688 259.074219 257.214844 C 259.492188 257.714844 260.058594 258.339844 260.707031 258.964844 L 260.769531 258.734375 C 260.769531 258.734375 261.125 249.351562 266.96875 248.019531 C 270.414062 247.222656 275.722656 246.8125 280.246094 247.214844 C 280.007812 246.613281 279.753906 246.046875 279.523438 245.421875 C 278.867188 243.625 278.867188 243.625 278.867188 243.625 C 278.867188 243.625 277.570312 239.777344 276.042969 240.296875 C 274.519531 240.8125 270.601562 240.296875 270.601562 240.296875 C 269.742188 240.296875 263.644531 241.066406 262.550781 242.085938 C 261.460938 243.113281 256.242188 247.722656 256.242188 250.289062 C 256.242188 250.335938 256.25 250.378906 256.25 250.425781 L 210.816406 183.453125 L 173.679688 208.710938 L 220.441406 277.640625 Z M 181.609375 138.96875 L 131.257812 64.753906 L 94.121094 90.003906 L 144.472656 164.21875 Z M 351.84375 120.949219 C 350.792969 119.898438 345.933594 114.375 343.570312 112.664062 C 341.207031 110.957031 337.003906 105.828125 337.003906 105.828125 C 337.003906 105.828125 336.480469 105.699219 335.691406 104.910156 C 334.902344 104.121094 329.914062 99.773438 329.125 98.261719 C 328.339844 96.75 323.472656 93.4375 323.472656 93.4375 L 315.460938 92.007812 L 307.089844 93.183594 C 307.089844 93.183594 311.382812 94.769531 314.148438 98.253906 C 316.90625 101.738281 323.472656 105.164062 326.5 109.765625 C 329.519531 114.367188 332.144531 118.046875 334.246094 120.027344 C 336.347656 122 342.167969 128.738281 342.167969 128.738281 C 342.167969 128.738281 346.851562 127.851562 350.800781 128.738281 C 354.746094 129.625 359.203125 128.738281 359.203125 128.738281 C 359.203125 128.738281 352.894531 122 351.84375 120.949219 Z M 217.464844 98.460938 C 220.351562 101.746094 224.027344 104.242188 226 106.347656 C 227.96875 108.449219 230.070312 110.6875 230.726562 111.867188 C 231.382812 113.050781 233.089844 110.160156 234.007812 103.847656 C 234.925781 97.539062 235.191406 85.304688 235.191406 85.304688 L 226.128906 84.382812 L 212.390625 93.183594 C 212.390625 93.183594 214.566406 95.171875 217.464844 98.460938 Z M 332.007812 329.144531 C 328.460938 324.804688 325.507812 322.800781 323.339844 320.84375 C 321.171875 318.886719 314.675781 311.78125 314.675781 311.78125 L 307.089844 302.859375 C 307.089844 302.859375 302.847656 293.828125 289.050781 293.828125 C 275.257812 293.828125 246.097656 292.25 232.695312 292.25 C 219.292969 292.25 211.367188 302.859375 211.367188 302.859375 C 211.367188 302.859375 213.582031 305.863281 220.671875 312.964844 C 227.761719 320.0625 241.082031 330.113281 242.929688 332.957031 C 244.777344 335.796875 246.433594 338.371094 246.433594 338.371094 C 246.433594 338.371094 278.003906 337.335938 294.164062 338.371094 C 310.324219 339.40625 315.25 338.371094 318.792969 338.371094 C 322.339844 338.371094 326.671875 338.371094 327.261719 338.371094 C 327.855469 338.371094 333.761719 338.371094 333.761719 338.371094 L 342.140625 338.371094 C 342.160156 338.371094 335.550781 333.480469 332.007812 329.144531 Z M 150.132812 326.382812 C 145.996094 320.859375 139.488281 316.121094 138.503906 315.332031 C 137.519531 314.542969 127.910156 302.808594 127.910156 302.808594 C 127.910156 302.808594 110.921875 292.242188 107.769531 292.242188 C 104.617188 292.242188 27.964844 297.367188 27.964844 297.367188 L 16.179688 302.839844 C 16.179688 302.839844 24.617188 308.847656 31.316406 318.394531 C 38.011719 327.941406 51.25 338.355469 51.25 338.355469 C 51.25 338.355469 60.277344 336.53125 80.769531 338.355469 C 101.261719 340.179688 124.511719 337.417969 135.15625 337.417969 C 145.800781 337.417969 162.984375 338.355469 162.984375 338.355469 C 162.984375 338.355469 154.269531 331.902344 150.132812 326.382812 Z M 21.074219 98.128906 C 24.222656 102.667969 23.042969 100.890625 29.738281 106.019531 C 36.4375 111.144531 38.601562 116.871094 38.601562 116.871094 L 39.390625 90.175781 L 29.738281 88.074219 L 16.179688 93.183594 C 16.179688 93.183594 17.921875 93.59375 21.074219 98.128906 Z M 21.074219 98.128906 " fill-opacity="1" fill-rule="nonzero"/><path fill="#253c78" d="M 324.121094 67.546875 C 323.601562 60.976562 324.121094 37.238281 324.121094 37.238281 C 324.121094 37.238281 309.152344 38.484375 284.324219 37.238281 C 259.5 35.988281 256.742188 38.484375 241.566406 37.238281 C 226.390625 35.988281 212.390625 37.238281 212.390625 37.238281 C 212.390625 37.238281 213.566406 46.832031 212.390625 55.714844 C 211.21875 64.597656 212.390625 77.023438 212.390625 83.925781 C 212.390625 90.824219 212.390625 93.183594 212.390625 93.183594 C 212.390625 93.183594 213.484375 92.765625 219.695312 93.226562 C 225.898438 93.683594 228.746094 93.226562 228.746094 93.226562 C 228.746094 93.226562 230.4375 115.417969 228.746094 139.089844 C 227.058594 162.761719 228.746094 174.136719 228.746094 174.136719 C 228.746094 174.136719 213.121094 154.785156 195.921875 123.921875 C 178.71875 93.0625 165.777344 83.71875 160.164062 69.324219 C 154.550781 54.917969 139.160156 37.230469 139.160156 37.230469 C 139.160156 37.230469 115.140625 39.527344 82.820312 37.230469 C 50.496094 34.9375 16.179688 37.195312 16.179688 37.195312 C 16.179688 37.195312 17.332031 55.714844 16.179688 68.34375 C 15.03125 80.972656 16.179688 93.191406 16.179688 93.191406 C 16.179688 93.191406 23.042969 92.609375 27.246094 93.234375 C 31.445312 93.859375 33.210938 93.191406 33.210938 93.191406 C 33.210938 93.191406 32.085938 139.894531 33.210938 162.78125 C 34.335938 185.664062 34.710938 224.59375 33.210938 230.773438 L 33.210938 246.828125 C 33.210938 246.828125 28.296875 247.625 23.304688 246.828125 C 18.316406 246.03125 16.179688 246.828125 16.179688 246.828125 C 16.179688 246.828125 15.625 273.253906 16.179688 283.640625 C 16.738281 294.03125 16.179688 302.859375 16.179688 302.859375 C 16.179688 302.859375 25.667969 301.609375 52.203125 302.816406 C 78.734375 304.023438 98.308594 302.214844 110.003906 302.859375 C 121.699219 303.5 127.910156 302.816406 127.910156 302.816406 C 127.910156 302.816406 128.476562 295.875 127.910156 282.457031 C 127.34375 269.039062 127.292969 264.042969 127.910156 253.128906 L 127.910156 246.828125 C 127.910156 246.828125 121.425781 247.492188 116.960938 246.828125 C 112.496094 246.164062 111.554688 246.164062 111.554688 246.164062 C 111.554688 246.164062 112.980469 222.753906 111.554688 190.921875 C 110.125 159.089844 111.554688 148.84375 111.554688 148.84375 C 111.554688 148.84375 118.40625 155.484375 125.039062 169.648438 C 131.667969 183.824219 137.070312 185.949219 146.128906 202.179688 C 155.191406 218.40625 168.640625 236.910156 168.640625 236.910156 C 168.640625 236.910156 182.976562 256.96875 195.617188 278.527344 C 208.253906 300.082031 211.367188 302.867188 211.367188 302.867188 C 211.367188 302.867188 217.324219 301.878906 246.613281 302.824219 C 275.90625 303.769531 290.355469 302.824219 290.355469 302.824219 L 307.082031 302.867188 C 307.082031 302.867188 305.546875 296.800781 307.082031 278.652344 C 308.617188 260.5 305.546875 236.039062 307.082031 215.257812 C 308.617188 194.480469 306.074219 164.488281 307.082031 149.238281 C 308.09375 133.980469 307.082031 93.199219 307.082031 93.199219 C 307.082031 93.199219 313.550781 92.46875 318.472656 93.199219 C 323.398438 93.933594 324.121094 93.242188 324.121094 93.242188 C 324.121094 93.242188 324.636719 74.128906 324.121094 67.546875 Z M 73.628906 198.183594 C 71.75 221.265625 76.960938 248.5625 73.933594 262.605469 C 73.933594 262.605469 71.527344 243.582031 71.527344 235.277344 C 71.527344 226.96875 70.527344 175.746094 71.527344 165.121094 C 72.898438 150.535156 74.984375 151.636719 74.984375 151.636719 L 74.113281 159.921875 C 74.113281 159.910156 75.5 175.105469 73.628906 198.183594 Z M 76.394531 130.183594 C 75.886719 130.90625 73.433594 131.746094 72.113281 131.621094 C 71.152344 131.53125 70.09375 130.703125 69.304688 129.921875 C 69 129.625 68.738281 129.335938 68.535156 129.097656 C 67.820312 128.261719 67.203125 127.054688 67.203125 125.855469 C 67.203125 124.644531 69.648438 122.484375 70.167969 122.007812 C 70.675781 121.53125 73.539062 121.171875 73.941406 121.171875 C 73.941406 121.171875 75.78125 121.410156 76.492188 121.171875 C 77.207031 120.933594 77.816406 122.730469 77.816406 122.730469 C 77.816406 122.730469 77.816406 122.730469 78.128906 123.578125 C 78.234375 123.875 78.355469 124.136719 78.464844 124.414062 C 78.667969 124.933594 78.839844 125.5 78.839844 126.40625 C 78.847656 127.792969 76.914062 129.460938 76.394531 130.183594 Z M 79.300781 101.464844 C 78.355469 102.804688 73.785156 104.375 71.324219 104.152344 C 69.542969 103.988281 67.566406 102.4375 66.097656 100.980469 C 65.53125 100.429688 65.039062 99.890625 64.667969 99.453125 C 63.339844 97.882812 62.199219 95.640625 62.199219 93.40625 C 62.199219 91.164062 66.761719 87.136719 67.710938 86.242188 C 68.664062 85.34375 73.992188 84.671875 74.746094 84.671875 C 74.746094 84.671875 78.175781 85.125 79.507812 84.671875 C 80.835938 84.21875 81.96875 87.582031 81.96875 87.582031 C 81.96875 87.582031 81.96875 87.582031 82.542969 89.15625 C 82.738281 89.707031 82.96875 90.203125 83.175781 90.726562 C 83.550781 91.6875 83.871094 92.757812 83.871094 94.425781 C 83.871094 97.011719 80.253906 100.128906 79.300781 101.464844 Z M 142.929688 130.324219 C 140.269531 124.917969 135.765625 119.847656 134.121094 117.761719 C 132.480469 115.671875 128.917969 111.359375 127.203125 109.839844 C 125.480469 108.320312 117.789062 97.621094 116.871094 96.222656 C 115.953125 94.828125 110.316406 86.519531 110.316406 86.519531 C 112.597656 87.851562 117.070312 92.207031 118.933594 94.359375 C 120.792969 96.511719 128.199219 104.8125 132.160156 109.191406 C 136.125 113.570312 142.125 118.96875 145.375 126.035156 C 148.625 133.101562 152.992188 139.78125 155.171875 143.691406 C 157.355469 147.59375 159.457031 150.949219 159.785156 151.808594 C 160.113281 152.671875 160.113281 152.671875 160.113281 152.671875 C 160.113281 152.671875 158.285156 151.6875 156.996094 150.042969 C 155.707031 148.402344 152.25 143.996094 149.28125 140.207031 C 146.300781 136.421875 145.578125 135.730469 142.929688 130.324219 Z M 180.796875 186.148438 C 180.796875 186.148438 176.59375 196.433594 175.417969 195.5 C 174.261719 194.570312 173.320312 189.65625 171.449219 185.679688 C 169.585938 181.703125 169.824219 182.640625 167.941406 179.367188 C 167.261719 178.1875 165.234375 176.78125 162.921875 175.484375 C 161.558594 174.710938 160.089844 173.960938 158.742188 173.320312 C 155.878906 171.949219 152.515625 170.742188 152.515625 170.742188 C 152.515625 170.742188 162.429688 167.847656 164.527344 166.921875 C 166.636719 165.984375 168.96875 162.945312 170.839844 161.769531 C 172.703125 160.609375 175.117188 153.585938 175.117188 153.585938 C 175.117188 153.585938 176.511719 154.988281 178.003906 157.59375 C 178.003906 157.601562 177.996094 157.601562 177.996094 157.609375 C 178.21875 157.980469 178.457031 158.367188 178.679688 158.792969 C 178.941406 159.289062 179.277344 159.78125 179.703125 160.289062 C 181.894531 162.992188 186.105469 165.953125 190.824219 167.914062 C 196.421875 170.25 196.191406 171.183594 196.191406 171.183594 L 187.320312 175.851562 Z M 238.332031 260 C 237.046875 258.355469 233.589844 253.953125 230.617188 250.164062 C 227.648438 246.375 226.933594 245.695312 224.273438 240.289062 C 221.617188 234.882812 217.109375 229.8125 215.46875 227.722656 C 213.828125 225.636719 210.265625 221.324219 208.550781 219.804688 C 206.828125 218.285156 199.136719 207.585938 198.21875 206.1875 C 197.300781 204.792969 191.660156 196.484375 191.660156 196.484375 C 193.941406 197.816406 198.414062 202.171875 200.277344 204.324219 C 202.140625 206.476562 209.542969 214.773438 213.507812 219.15625 C 217.472656 223.535156 223.472656 228.933594 226.722656 236 C 229.972656 243.066406 234.335938 249.746094 236.519531 253.65625 C 238.703125 257.566406 240.804688 260.910156 241.132812 261.773438 C 241.460938 262.636719 241.460938 262.636719 241.460938 262.636719 C 241.460938 262.636719 239.621094 261.644531 238.332031 260 Z M 267.894531 98.925781 C 269.265625 84.34375 271.351562 85.445312 271.351562 85.445312 L 270.480469 93.726562 C 270.480469 93.726562 271.867188 108.910156 269.996094 132 C 268.125 155.089844 273.328125 182.375 270.300781 196.417969 C 270.300781 196.417969 267.894531 177.398438 267.894531 169.089844 C 267.894531 160.773438 266.894531 109.550781 267.894531 98.925781 Z M 266.539062 215.664062 C 267.050781 215.1875 269.914062 214.824219 270.316406 214.824219 C 270.316406 214.824219 272.152344 215.0625 272.867188 214.824219 C 273.582031 214.585938 274.1875 216.386719 274.1875 216.386719 C 274.1875 216.386719 274.1875 216.386719 274.5 217.230469 C 274.609375 217.527344 274.730469 217.789062 274.835938 218.070312 C 275.042969 218.585938 275.214844 219.15625 275.214844 220.058594 C 275.214844 221.445312 273.269531 223.121094 272.761719 223.847656 C 272.253906 224.570312 269.796875 225.40625 268.476562 225.285156 C 267.515625 225.195312 266.457031 224.363281 265.671875 223.582031 C 265.367188 223.289062 265.105469 223 264.898438 222.761719 C 264.183594 221.921875 263.570312 220.714844 263.570312 219.515625 C 263.570312 218.316406 266.03125 216.148438 266.539062 215.664062 Z M 275.667969 259.105469 C 274.722656 260.441406 270.152344 262.011719 267.691406 261.789062 C 265.910156 261.625 263.929688 260.074219 262.460938 258.617188 C 261.894531 258.070312 261.402344 257.527344 261.035156 257.089844 C 259.703125 255.519531 258.5625 253.277344 258.5625 251.042969 C 258.5625 248.800781 263.125 244.773438 264.078125 243.878906 C 265.03125 242.984375 270.355469 242.308594 271.113281 242.308594 C 271.113281 242.308594 274.542969 242.761719 275.871094 242.308594 C 277.203125 241.855469 278.332031 245.21875 278.332031 245.21875 C 278.332031 245.21875 278.332031 245.21875 278.910156 246.796875 C 279.105469 247.347656 279.335938 247.839844 279.539062 248.363281 C 279.917969 249.324219 280.238281 250.394531 280.238281 252.0625 C 280.238281 254.652344 276.625 257.765625 275.667969 259.105469 Z M 275.667969 259.105469 " fill-opacity="1" fill-rule="nonzero"/><path fill="#ffd89f" d="M 324.53125 67.515625 C 324.023438 61.03125 324.53125 37.476562 324.53125 37.246094 L 324.539062 36.785156 L 324.085938 36.824219 C 324.023438 36.835938 317.308594 37.375 305.679688 37.375 C 298.84375 37.375 291.660156 37.1875 284.347656 36.816406 C 279.515625 36.570312 275.222656 36.457031 271.21875 36.457031 C 265.800781 36.457031 261.839844 36.679688 258.34375 36.867188 C 255.503906 37.023438 252.820312 37.171875 249.847656 37.171875 C 247.195312 37.171875 244.578125 37.054688 241.601562 36.808594 C 237.109375 36.441406 232.292969 36.25 227.261719 36.25 C 218.703125 36.25 212.425781 36.800781 212.359375 36.808594 L 211.941406 36.851562 L 211.988281 37.269531 C 211.996094 37.367188 213.136719 46.925781 211.988281 55.640625 C 211.167969 61.886719 211.496094 69.957031 211.769531 76.445312 C 211.882812 79.222656 211.988281 81.835938 211.988281 83.90625 L 211.988281 93.167969 L 211.996094 93.726562 L 212.53125 93.554688 C 212.546875 93.546875 213.023438 93.398438 214.84375 93.398438 C 216.125 93.398438 217.742188 93.472656 219.671875 93.613281 C 221.519531 93.75 223.242188 93.816406 224.808594 93.816406 C 226.621094 93.816406 227.789062 93.726562 228.371094 93.660156 C 228.59375 96.867188 229.878906 117.464844 228.335938 139.042969 C 227 157.785156 227.789062 168.941406 228.171875 172.722656 C 224.621094 168.144531 210.945312 150.027344 196.273438 123.699219 C 187.304688 107.605469 179.523438 97.398438 173.269531 89.199219 C 167.648438 81.820312 163.207031 76.003906 160.539062 69.152344 C 154.960938 54.84375 139.621094 37.113281 139.464844 36.941406 L 139.324219 36.785156 L 139.113281 36.800781 C 139.003906 36.808594 128.253906 37.820312 111.785156 37.820312 C 102.097656 37.820312 92.367188 37.476562 82.847656 36.800781 C 73.203125 36.136719 62.425781 35.789062 50.816406 35.789062 C 31.453125 35.789062 16.304688 36.777344 16.15625 36.785156 L 15.746094 36.808594 L 15.769531 37.21875 C 15.78125 37.402344 16.910156 55.855469 15.769531 68.304688 C 14.628906 80.828125 15.761719 93.101562 15.769531 93.226562 L 15.8125 93.628906 L 16.214844 93.59375 C 16.246094 93.59375 19.144531 93.347656 22.28125 93.347656 C 24.265625 93.347656 25.914062 93.445312 27.1875 93.636719 C 28.402344 93.816406 29.527344 93.90625 30.550781 93.90625 C 31.601562 93.90625 32.339844 93.808594 32.792969 93.71875 C 32.667969 99.011719 31.757812 141.480469 32.808594 162.789062 C 33.910156 185.097656 34.351562 224.378906 32.816406 230.664062 L 32.808594 246.464844 C 32.085938 246.566406 30.296875 246.769531 28.097656 246.769531 C 26.414062 246.769531 24.824219 246.65625 23.378906 246.417969 C 21.886719 246.179688 20.5 246.054688 19.25 246.054688 C 17.09375 246.054688 16.089844 246.425781 16.050781 246.441406 L 15.789062 246.539062 L 15.78125 246.820312 C 15.769531 247.082031 15.230469 273.375 15.78125 283.664062 C 16.328125 293.910156 15.789062 302.75 15.78125 302.832031 L 15.746094 303.335938 L 16.238281 303.269531 C 16.28125 303.261719 20.664062 302.703125 31.4375 302.703125 C 37.542969 302.703125 44.527344 302.875 52.183594 303.226562 C 58.503906 303.515625 64.882812 303.65625 71.683594 303.65625 C 79.0625 303.65625 85.675781 303.492188 91.519531 303.34375 C 96.191406 303.226562 100.226562 303.128906 103.832031 303.128906 C 106.242188 303.128906 108.253906 303.179688 109.976562 303.269531 C 113.308594 303.449219 116.511719 303.539062 119.507812 303.539062 C 124.988281 303.539062 127.925781 303.226562 127.949219 303.21875 L 128.289062 303.1875 L 128.3125 302.847656 C 128.320312 302.785156 128.878906 295.726562 128.3125 282.4375 C 127.753906 269.292969 127.695312 264.164062 128.3125 253.128906 L 128.3125 246.375 L 127.859375 246.425781 C 127.835938 246.425781 124.964844 246.722656 121.78125 246.722656 C 119.917969 246.722656 118.316406 246.621094 117.019531 246.425781 C 114.03125 245.980469 112.613281 245.824219 111.988281 245.777344 C 112.167969 242.507812 113.277344 220.117188 111.964844 190.90625 C 110.78125 164.457031 111.578125 152.828125 111.867188 149.765625 C 113.671875 151.71875 119.269531 158.285156 124.667969 169.820312 C 128.1875 177.347656 131.308594 181.414062 134.910156 186.132812 C 138.003906 190.175781 141.507812 194.75 145.769531 202.382812 C 154.738281 218.449219 168.171875 236.96875 168.304688 237.148438 C 168.445312 237.347656 182.773438 257.445312 195.253906 278.734375 C 207.789062 300.097656 210.957031 303.054688 211.085938 303.171875 L 211.234375 303.300781 L 211.429688 303.269531 C 211.457031 303.269531 214.289062 302.824219 224.914062 302.824219 C 230.890625 302.824219 238.1875 302.964844 246.605469 303.234375 C 255.246094 303.515625 263.445312 303.65625 270.980469 303.65625 C 283.808594 303.65625 290.324219 303.234375 290.363281 303.234375 L 307.617188 303.277344 L 307.484375 302.765625 C 307.46875 302.710938 305.984375 296.515625 307.492188 278.683594 C 308.257812 269.679688 307.894531 259.277344 307.507812 248.265625 C 307.125 237.207031 306.722656 225.761719 307.492188 215.285156 C 308.339844 203.871094 307.945312 189.433594 307.597656 176.699219 C 307.3125 166.117188 307.042969 156.125 307.492188 149.253906 C 308.445312 134.941406 307.597656 97.734375 307.5 93.5625 C 308.378906 93.480469 310.71875 93.273438 313.328125 93.273438 C 315.265625 93.273438 316.980469 93.382812 318.40625 93.59375 C 319.925781 93.824219 321.214844 93.941406 322.214844 93.941406 C 323.800781 93.941406 324.269531 93.652344 324.390625 93.53125 L 324.515625 93.414062 L 324.523438 93.25 C 324.539062 93.042969 325.046875 74.039062 324.53125 67.515625 Z M 301.757812 93.316406 C 301.765625 93.71875 302.742188 134.128906 301.765625 148.867188 C 301.289062 156.015625 301.566406 166.140625 301.863281 176.878906 C 302.207031 189.46875 302.59375 203.738281 301.773438 214.855469 C 300.976562 225.636719 301.378906 237.222656 301.773438 248.464844 C 302.148438 259.292969 302.511719 269.523438 301.773438 278.191406 C 301.132812 285.792969 300.925781 292.292969 301.171875 297.5 L 290.382812 297.476562 L 290.019531 297.484375 C 289.757812 297.5 283.421875 297.894531 270.980469 297.894531 C 263.503906 297.894531 255.363281 297.753906 246.792969 297.476562 C 238.308594 297.203125 230.949219 297.066406 224.914062 297.066406 C 220.285156 297.066406 216.527344 297.148438 213.738281 297.304688 C 211.964844 294.886719 207.933594 288.972656 200.222656 275.816406 C 187.550781 254.214844 173.105469 233.96875 172.957031 233.761719 C 172.828125 233.582031 159.507812 215.195312 150.789062 199.574219 C 146.335938 191.585938 142.691406 186.828125 139.480469 182.632812 C 136.074219 178.1875 133.136719 174.339844 129.878906 167.382812 C 122.902344 152.476562 115.574219 145.292969 115.269531 145 L 107.730469 137.695312 L 106.285156 148.105469 C 106.226562 148.539062 104.808594 159.230469 106.234375 191.160156 C 107.628906 222.261719 106.253906 245.605469 106.242188 245.816406 L 105.578125 251.839844 L 111.488281 251.503906 C 111.785156 251.527344 113 251.636719 116.191406 252.113281 C 117.765625 252.351562 119.652344 252.464844 121.804688 252.464844 C 122.066406 252.464844 122.328125 252.464844 122.59375 252.457031 L 122.59375 252.964844 C 121.96875 264.140625 122.035156 269.339844 122.59375 282.6875 C 122.878906 289.480469 122.863281 294.574219 122.796875 297.753906 C 119.0625 297.855469 114.789062 297.773438 110.304688 297.535156 C 108.476562 297.433594 106.359375 297.386719 103.839844 297.386719 C 100.164062 297.386719 96.09375 297.484375 91.382812 297.605469 C 85.570312 297.738281 78.988281 297.902344 71.683594 297.902344 C 64.972656 297.902344 58.683594 297.761719 52.449219 297.484375 C 44.707031 297.128906 37.644531 296.949219 31.4375 296.949219 C 27.84375 296.949219 24.578125 297.007812 21.730469 297.128906 C 21.796875 293.777344 21.804688 288.789062 21.507812 283.359375 C 21.121094 276.113281 21.285156 260.773438 21.425781 251.957031 C 21.761719 251.996094 22.105469 252.046875 22.460938 252.101562 C 24.207031 252.382812 26.105469 252.523438 28.089844 252.523438 C 31.265625 252.523438 33.628906 252.167969 34.0625 252.09375 L 38.546875 251.363281 L 38.539062 231.339844 C 40.261719 221.890625 39.441406 180.914062 38.539062 162.507812 C 37.4375 140.085938 38.527344 93.785156 38.539062 93.339844 L 39.375 83.890625 L 31.472656 88.097656 C 31.273438 88.121094 30.96875 88.148438 30.542969 88.148438 C 29.804688 88.148438 28.960938 88.074219 28.023438 87.941406 C 26.472656 87.710938 24.542969 87.597656 22.269531 87.597656 C 21.894531 87.597656 21.523438 87.597656 21.164062 87.605469 C 20.957031 82.871094 20.851562 75.886719 21.492188 68.820312 C 22.304688 59.988281 22.023438 48.542969 21.769531 42.242188 C 27.359375 41.96875 38.21875 41.542969 50.816406 41.542969 C 62.289062 41.542969 72.925781 41.886719 82.4375 42.5625 C 92.09375 43.25 101.96875 43.597656 111.785156 43.597656 C 123.683594 43.597656 132.515625 43.085938 136.839844 42.773438 C 141.089844 47.941406 151.0625 60.695312 155.179688 71.261719 C 158.144531 78.863281 162.804688 84.976562 168.699219 92.714844 C 174.835938 100.769531 182.476562 110.792969 191.25 126.527344 C 208.5 157.480469 223.9375 176.691406 224.59375 177.496094 L 236.816406 192.613281 L 234.023438 173.355469 C 234.007812 173.246094 232.449219 162.089844 234.066406 139.46875 C 235.765625 115.746094 234.132812 93.734375 234.066406 92.824219 L 233.703125 86.898438 L 227.917969 87.941406 C 227.804688 87.957031 226.777344 88.082031 224.792969 88.082031 C 223.371094 88.082031 221.789062 88.015625 220.082031 87.894531 C 219.246094 87.828125 218.457031 87.777344 217.71875 87.746094 L 217.71875 83.914062 C 217.71875 81.714844 217.609375 79.042969 217.488281 76.214844 C 217.234375 69.957031 216.914062 62.15625 217.667969 56.40625 C 218.351562 51.238281 218.300781 45.914062 218.121094 42.222656 C 221.140625 42.085938 224.210938 42.019531 227.246094 42.019531 C 232.121094 42.019531 236.78125 42.199219 241.117188 42.554688 C 244.210938 42.808594 247.066406 42.929688 249.832031 42.929688 C 252.957031 42.929688 255.714844 42.773438 258.644531 42.617188 C 262.066406 42.429688 265.941406 42.214844 271.203125 42.214844 C 275.109375 42.214844 279.308594 42.332031 284.046875 42.570312 C 291.457031 42.9375 298.726562 43.128906 305.664062 43.128906 C 310.300781 43.128906 314.675781 43.046875 318.671875 42.882812 C 318.546875 50.398438 318.417969 63.21875 318.792969 67.96875 C 319.121094 72.140625 319 82.019531 318.890625 87.851562 C 317.257812 87.628906 315.386719 87.515625 313.328125 87.515625 C 309.800781 87.515625 306.8125 87.835938 306.484375 87.875 L 301.632812 88.425781 Z M 301.757812 93.316406 " fill-opacity="1" fill-rule="nonzero"/></svg>